<?xml version="1.0" standalone="no"?>
<!DOCTYPE svg PUBLIC "-//W3C//DTD SVG 20010904//EN"
 "http://www.w3.org/TR/2001/REC-SVG-20010904/DTD/svg10.dtd">
<svg version="1.0" xmlns="http://www.w3.org/2000/svg"
 width="772.000000pt" height="772.000000pt" viewBox="0 0 772.000000 772.000000"
 preserveAspectRatio="xMidYMid meet">
<metadata>
Created by potrace 1.14, written by Peter Selinger 2001-2017
</metadata>
<g transform="translate(0.000000,772.000000) scale(0.100000,-0.100000)"
fill="#000000" stroke="none">
<path d="M3695 7294 c-129 -8 -296 -26 -415 -46 -1326 -215 -2420 -1220 -2749
-2524 -84 -331 -123 -728 -102 -1029 30 -430 120 -809 273 -1160 468 -1068
1405 -1810 2545 -2015 381 -69 846 -65 1233 11 584 113 1126 374 1570 754 488
417 837 938 1033 1540 110 336 155 615 163 995 6 284 -10 481 -62 735 -165
819 -622 1547 -1288 2049 -408 308 -894 526 -1394 626 -225 45 -613 76 -807
64z m347 -164 c456 -29 854 -137 1261 -341 498 -249 932 -634 1247 -1104 479
-716 652 -1602 480 -2455 -55 -273 -145 -532 -275 -795 -163 -329 -355 -596
-614 -855 -341 -340 -720 -584 -1163 -749 -551 -205 -1171 -258 -1748 -150
-1032 195 -1913 887 -2357 1854 -414 902 -383 1976 83 2864 324 616 839 1113
1469 1417 507 244 1053 351 1617 314z"/>
<path d="M3653 5690 c-18 -11 -35 -31 -39 -44 -3 -14 1 -125 10 -248 23 -315
20 -539 -12 -1073 l-7 -110 -102 3 c-112 4 -156 -9 -193 -56 -28 -35 -25 -69
10 -104 27 -27 35 -29 73 -23 88 13 163 16 188 6 25 -9 27 -14 34 -111 4 -56
3 -106 -2 -110 -4 -5 -42 1 -83 11 -41 11 -111 20 -155 21 -72 1 -87 -2 -135
-28 -91 -49 -112 -113 -55 -170 31 -31 63 -30 127 2 63 32 117 29 243 -12 88
-28 137 -28 198 1 61 29 79 85 57 180 -13 60 -13 109 1 495 8 195 13 561 12
813 -1 404 -3 464 -18 503 -28 74 -86 95 -152 54z"/>
<path d="M4034 5696 c-17 -8 -41 -27 -53 -42 -22 -27 -23 -34 -15 -104 12
-105 6 -441 -12 -795 -12 -219 -14 -377 -10 -585 11 -463 19 -512 86 -540 37
-15 69 -8 103 24 33 30 34 57 12 321 -17 203 -19 484 -5 685 5 74 12 208 16
297 l7 162 86 -6 c103 -6 163 7 203 47 36 37 38 81 3 115 -26 27 -62 31 -130
15 -22 -6 -64 -7 -93 -4 -43 5 -55 11 -62 29 -10 26 -17 192 -8 200 3 3 32 -2
64 -10 82 -22 210 -30 260 -16 55 15 104 49 128 90 19 32 19 34 1 67 -10 18
-32 40 -50 48 -32 15 -36 15 -100 -15 -77 -36 -102 -36 -228 6 -85 28 -155 31
-203 11z"/>
<path d="M2814 3089 c-6 -11 -12 -137 -30 -649 -8 -207 2 -293 41 -369 13 -25
33 -52 44 -58 29 -18 119 -27 185 -19 l56 7 0 45 0 44 -84 -2 c-99 -2 -110 4
-131 75 -18 61 -19 161 -3 415 l11 192 41 2 c23 1 70 2 106 3 l65 0 0 45 0 45
-103 -2 -103 -1 3 71 3 71 103 -3 102 -3 0 45 c0 42 -2 45 -31 51 -56 11 -267
7 -275 -5z"/>
<path d="M3196 3092 c-8 -13 -9 -1079 -2 -1091 11 -17 34 -13 139 24 121 42
183 85 215 147 l24 46 -11 319 c-8 228 -15 332 -26 369 -18 62 -73 137 -112
152 -84 33 -215 53 -227 34z m189 -127 c27 -19 55 -45 62 -57 9 -17 12 -108
13 -366 l0 -342 -61 -45 c-34 -25 -65 -45 -69 -45 -5 0 -15 -3 -24 -6 -14 -6
-16 29 -16 347 0 195 3 398 7 452 7 113 12 117 88 62z"/>
<path d="M3664 3092 c-8 -5 -13 -96 -18 -277 -3 -148 -9 -333 -12 -410 -10
-214 20 -351 83 -392 31 -20 176 -30 216 -14 21 8 27 17 27 40 0 44 -25 64
-69 55 -52 -12 -97 -9 -115 5 -8 7 -23 36 -32 64 -15 44 -16 77 -11 237 4 102
10 227 13 278 l7 92 103 0 102 0 7 40 c4 21 4 44 0 50 -4 6 -48 10 -106 10
l-99 0 0 65 0 65 105 0 105 0 0 44 c0 37 -4 45 -22 50 -33 8 -271 7 -284 -2z"/>
<path d="M4381 3084 c-24 -17 -65 -17 -263 2 l-68 7 0 -41 0 -41 58 -12 c72
-15 175 -28 184 -23 15 9 19 -18 6 -39 -41 -63 -197 -421 -239 -547 -58 -173
-74 -264 -59 -321 13 -46 31 -57 65 -39 19 10 33 10 67 1 132 -38 195 -37 243
1 53 41 67 120 23 131 -29 8 -45 -1 -67 -39 -11 -19 -26 -34 -33 -34 -7 0 -40
11 -73 25 -33 13 -75 25 -92 25 -30 0 -33 3 -33 33 0 49 81 277 147 417 33 69
73 154 88 190 16 36 37 77 47 92 10 15 25 43 33 62 l15 35 92 -6 c51 -3 97
-11 101 -17 4 -6 6 -72 3 -146 -3 -74 -9 -281 -12 -460 -7 -361 -8 -356 55
-344 21 5 33 13 35 28 3 11 10 221 16 465 6 244 14 450 17 457 4 10 25 14 73
14 38 0 75 3 84 6 22 8 22 70 0 78 -9 3 -112 6 -229 6 l-213 0 -16 25 c-19 29
-24 30 -55 9z"/>
<path d="M4970 3003 c-21 -71 -28 -289 -20 -613 5 -179 12 -337 16 -352 5 -24
11 -28 40 -28 52 0 57 23 49 245 -7 222 -5 223 71 41 56 -135 87 -198 126
-254 27 -39 33 -43 66 -40 35 3 37 5 35 36 -1 36 -188 423 -241 501 l-30 44
71 81 c79 91 125 178 134 255 6 50 5 51 -28 65 -18 8 -38 12 -44 10 -6 -3 -16
-32 -22 -66 -9 -47 -25 -81 -68 -145 -31 -46 -61 -85 -66 -89 -5 -3 -9 19 -9
49 0 30 -3 109 -7 175 l-6 122 -28 0 c-24 0 -30 -6 -39 -37z"/>
<path d="M2449 3003 c-14 -3 -17 -36 -22 -236 -8 -281 -7 -731 2 -772 6 -27
10 -30 46 -30 l40 0 2 305 c1 168 6 337 10 375 l8 70 67 5 c71 5 75 7 78 30 7
48 3 50 -74 50 l-74 0 -4 56 c-1 31 -1 57 2 59 3 1 37 -2 75 -7 58 -8 77 -7
108 6 36 14 38 18 35 53 -3 33 -6 38 -28 37 -14 -1 -39 -7 -57 -15 -26 -11
-39 -10 -83 4 -50 16 -96 20 -131 10z"/>
</g>
</svg>
